<mxfile host="app.diagrams.net" modified="2024-02-23T04:28:18.074Z" agent="Mozilla/5.0 (Macintosh; Intel Mac OS X 10_15_7) AppleWebKit/537.36 (KHTML, like Gecko) Chrome/121.0.0.0 Safari/537.36" etag="A1EN78TCIpJLP8VykXtk" version="23.1.6" type="device">
  <diagram name="Page-1" id="7FgJ31J3t9lmKk1nkAtC">
    <mxGraphModel dx="1013" dy="820" grid="1" gridSize="10" guides="1" tooltips="1" connect="1" arrows="1" fold="1" page="1" pageScale="1" pageWidth="1654" pageHeight="1169" math="0" shadow="0">
      <root>
        <mxCell id="0" />
        <mxCell id="1" parent="0" />
        <mxCell id="Hlo-Elp5rLi7jEpFHKFx-1" value="is - a" style="endArrow=block;endSize=16;endFill=0;html=1;rounded=0;" parent="1" edge="1">
          <mxGeometry width="160" relative="1" as="geometry">
            <mxPoint x="410" y="1090" as="sourcePoint" />
            <mxPoint x="570" y="1090" as="targetPoint" />
            <Array as="points">
              <mxPoint x="490" y="1090" />
            </Array>
          </mxGeometry>
        </mxCell>
        <mxCell id="Hlo-Elp5rLi7jEpFHKFx-2" value="" style="endArrow=diamondThin;endFill=0;endSize=24;html=1;rounded=0;" parent="1" edge="1">
          <mxGeometry width="160" relative="1" as="geometry">
            <mxPoint x="650" y="1090" as="sourcePoint" />
            <mxPoint x="810" y="1090" as="targetPoint" />
          </mxGeometry>
        </mxCell>
        <mxCell id="Hlo-Elp5rLi7jEpFHKFx-4" value="" style="endArrow=diamondThin;endFill=1;endSize=24;html=1;rounded=0;" parent="1" edge="1">
          <mxGeometry width="160" relative="1" as="geometry">
            <mxPoint x="860" y="1100" as="sourcePoint" />
            <mxPoint x="1020" y="1100" as="targetPoint" />
          </mxGeometry>
        </mxCell>
        <mxCell id="Hlo-Elp5rLi7jEpFHKFx-5" value="InformationDisplays" style="swimlane;fontStyle=0;childLayout=stackLayout;horizontal=1;startSize=26;fillColor=none;horizontalStack=0;resizeParent=1;resizeParentMax=0;resizeLast=0;collapsible=1;marginBottom=0;whiteSpace=wrap;html=1;" parent="1" vertex="1">
          <mxGeometry x="960" y="418" width="170" height="130" as="geometry" />
        </mxCell>
        <mxCell id="Hlo-Elp5rLi7jEpFHKFx-8" value="diaplayID: int&lt;br&gt;&lt;br&gt;title: string&lt;br&gt;&lt;br&gt;description: string" style="text;strokeColor=none;fillColor=none;align=left;verticalAlign=top;spacingLeft=4;spacingRight=4;overflow=hidden;rotatable=0;points=[[0,0.5],[1,0.5]];portConstraint=eastwest;whiteSpace=wrap;html=1;" parent="Hlo-Elp5rLi7jEpFHKFx-5" vertex="1">
          <mxGeometry y="26" width="170" height="104" as="geometry" />
        </mxCell>
        <mxCell id="Hlo-Elp5rLi7jEpFHKFx-10" value="FreshWater" style="swimlane;fontStyle=0;childLayout=stackLayout;horizontal=1;startSize=26;fillColor=none;horizontalStack=0;resizeParent=1;resizeParentMax=0;resizeLast=0;collapsible=1;marginBottom=0;whiteSpace=wrap;html=1;" parent="1" vertex="1">
          <mxGeometry x="200" y="80" width="150" height="150" as="geometry" />
        </mxCell>
        <mxCell id="Hlo-Elp5rLi7jEpFHKFx-11" value="&lt;span style=&quot;border-color: var(--border-color);&quot;&gt;&lt;u&gt;animalID: int&lt;/u&gt;&lt;br&gt;&lt;br&gt;climate: ENUM(&lt;br&gt;TROPICAL,&lt;br&gt;DRY,&lt;br&gt;CONTINENTAL,&lt;br&gt;TEMPERATE,&lt;br&gt;POLAR)&lt;br&gt;&lt;/span&gt;" style="text;strokeColor=none;fillColor=none;align=left;verticalAlign=top;spacingLeft=4;spacingRight=4;overflow=hidden;rotatable=0;points=[[0,0.5],[1,0.5]];portConstraint=eastwest;whiteSpace=wrap;html=1;" parent="Hlo-Elp5rLi7jEpFHKFx-10" vertex="1">
          <mxGeometry y="26" width="150" height="124" as="geometry" />
        </mxCell>
        <mxCell id="Hlo-Elp5rLi7jEpFHKFx-12" value="Exhibits" style="swimlane;fontStyle=0;childLayout=stackLayout;horizontal=1;startSize=26;fillColor=none;horizontalStack=0;resizeParent=1;resizeParentMax=0;resizeLast=0;collapsible=1;marginBottom=0;whiteSpace=wrap;html=1;" parent="1" vertex="1">
          <mxGeometry x="670" y="320" width="150" height="160" as="geometry" />
        </mxCell>
        <mxCell id="Hlo-Elp5rLi7jEpFHKFx-13" value="&lt;u&gt;exhibitID: int&lt;/u&gt;&lt;br&gt;&lt;br&gt;title: string&lt;br&gt;&lt;br&gt;interactivity: boolean&lt;br&gt;&lt;br&gt;animals: a slit of animal" style="text;strokeColor=none;fillColor=none;align=left;verticalAlign=top;spacingLeft=4;spacingRight=4;overflow=hidden;rotatable=0;points=[[0,0.5],[1,0.5]];portConstraint=eastwest;whiteSpace=wrap;html=1;" parent="Hlo-Elp5rLi7jEpFHKFx-12" vertex="1">
          <mxGeometry y="26" width="150" height="134" as="geometry" />
        </mxCell>
        <mxCell id="Hlo-Elp5rLi7jEpFHKFx-14" value="Animals&lt;span id=&quot;docs-internal-guid-b9450188-7fff-2dec-ee4b-abe940be6b7c&quot;&gt;&lt;/span&gt;" style="swimlane;fontStyle=0;childLayout=stackLayout;horizontal=1;startSize=26;fillColor=none;horizontalStack=0;resizeParent=1;resizeParentMax=0;resizeLast=0;collapsible=1;marginBottom=0;whiteSpace=wrap;html=1;" parent="1" vertex="1">
          <mxGeometry x="320" y="320" width="160" height="110" as="geometry" />
        </mxCell>
        <mxCell id="Hlo-Elp5rLi7jEpFHKFx-15" value="&lt;u&gt;animalID: int&lt;/u&gt;&lt;br&gt;&lt;br&gt;name: string&lt;br&gt;&lt;br&gt;handlerID: int" style="text;strokeColor=none;fillColor=none;align=left;verticalAlign=top;spacingLeft=4;spacingRight=4;overflow=hidden;rotatable=0;points=[[0,0.5],[1,0.5]];portConstraint=eastwest;whiteSpace=wrap;html=1;" parent="Hlo-Elp5rLi7jEpFHKFx-14" vertex="1">
          <mxGeometry y="26" width="160" height="84" as="geometry" />
        </mxCell>
        <mxCell id="Hlo-Elp5rLi7jEpFHKFx-16" value="SeaWater" style="swimlane;fontStyle=0;childLayout=stackLayout;horizontal=1;startSize=26;fillColor=none;horizontalStack=0;resizeParent=1;resizeParentMax=0;resizeLast=0;collapsible=1;marginBottom=0;whiteSpace=wrap;html=1;" parent="1" vertex="1">
          <mxGeometry x="470" y="50" width="150" height="180" as="geometry" />
        </mxCell>
        <mxCell id="Hlo-Elp5rLi7jEpFHKFx-17" value="&lt;u&gt;animalID: int&lt;/u&gt;&lt;br&gt;&lt;br&gt;pH: double (0.0 - 14.0)&lt;br&gt;&lt;br&gt;ocean: ENUM(&lt;br&gt;&lt;p style=&quot;line-height:1.38;margin-top:0pt;margin-bottom:0pt;&quot; dir=&quot;ltr&quot;&gt;&lt;/p&gt;&lt;div&gt;&lt;/div&gt;&lt;span style=&quot;background-color: transparent; font-variant-numeric: normal; font-variant-east-asian: normal; font-variant-alternates: normal; font-variant-position: normal; vertical-align: baseline;&quot;&gt;&lt;font style=&quot;font-size: 12px;&quot; face=&quot;Helvetica&quot;&gt;PACIFIC,&lt;br&gt;ATLANTIC, &lt;br&gt;INDIAN, &lt;br&gt;ARCTIC)&lt;/font&gt;&lt;/span&gt;&lt;span id=&quot;docs-internal-guid-f842e842-7fff-e121-82e1-14e8ef071f59&quot;&gt;&lt;/span&gt;" style="text;strokeColor=none;fillColor=none;align=left;verticalAlign=top;spacingLeft=4;spacingRight=4;overflow=hidden;rotatable=0;points=[[0,0.5],[1,0.5]];portConstraint=eastwest;whiteSpace=wrap;html=1;" parent="Hlo-Elp5rLi7jEpFHKFx-16" vertex="1">
          <mxGeometry y="26" width="150" height="154" as="geometry" />
        </mxCell>
        <mxCell id="Hlo-Elp5rLi7jEpFHKFx-20" value="&lt;blockquote&gt;has - a&lt;/blockquote&gt;" style="text;strokeColor=none;align=center;fillColor=none;html=1;verticalAlign=middle;whiteSpace=wrap;rounded=0;" parent="1" vertex="1">
          <mxGeometry x="880" y="1080" width="120" height="20" as="geometry" />
        </mxCell>
        <mxCell id="Hlo-Elp5rLi7jEpFHKFx-25" value="0..1" style="text;strokeColor=none;align=center;fillColor=none;html=1;verticalAlign=middle;whiteSpace=wrap;rounded=0;" parent="1" vertex="1">
          <mxGeometry x="370" y="1090" width="60" height="30" as="geometry" />
        </mxCell>
        <mxCell id="Hlo-Elp5rLi7jEpFHKFx-26" value="1" style="text;html=1;align=center;verticalAlign=middle;resizable=0;points=[];autosize=1;strokeColor=none;fillColor=none;" parent="1" vertex="1">
          <mxGeometry x="550" y="1090" width="30" height="30" as="geometry" />
        </mxCell>
        <mxCell id="Hlo-Elp5rLi7jEpFHKFx-27" value="0..1" style="text;html=1;align=center;verticalAlign=middle;resizable=0;points=[];autosize=1;strokeColor=none;fillColor=none;" parent="1" vertex="1">
          <mxGeometry x="780" y="1100" width="40" height="30" as="geometry" />
        </mxCell>
        <mxCell id="Hlo-Elp5rLi7jEpFHKFx-28" value="1" style="text;html=1;align=center;verticalAlign=middle;resizable=0;points=[];autosize=1;strokeColor=none;fillColor=none;" parent="1" vertex="1">
          <mxGeometry x="1000" y="1110" width="30" height="30" as="geometry" />
        </mxCell>
        <mxCell id="Hlo-Elp5rLi7jEpFHKFx-29" value="has-a/part - of" style="text;html=1;align=center;verticalAlign=middle;resizable=0;points=[];autosize=1;strokeColor=none;fillColor=none;" parent="1" vertex="1">
          <mxGeometry x="680" y="1060" width="100" height="30" as="geometry" />
        </mxCell>
        <mxCell id="NLfEqvlftT9nmGTMK3e9-1" value="Handlers" style="swimlane;fontStyle=0;childLayout=stackLayout;horizontal=1;startSize=26;fillColor=none;horizontalStack=0;resizeParent=1;resizeParentMax=0;resizeLast=0;collapsible=1;marginBottom=0;whiteSpace=wrap;html=1;" vertex="1" parent="1">
          <mxGeometry x="130" y="710" width="140" height="120" as="geometry" />
        </mxCell>
        <mxCell id="NLfEqvlftT9nmGTMK3e9-2" value="&lt;u&gt;handlerID: int&lt;/u&gt;&lt;br&gt;&lt;br&gt;firstName: string&lt;br&gt;&lt;br&gt;lastName: string" style="text;strokeColor=none;fillColor=none;align=left;verticalAlign=top;spacingLeft=4;spacingRight=4;overflow=hidden;rotatable=0;points=[[0,0.5],[1,0.5]];portConstraint=eastwest;whiteSpace=wrap;html=1;" vertex="1" parent="NLfEqvlftT9nmGTMK3e9-1">
          <mxGeometry y="26" width="140" height="94" as="geometry" />
        </mxCell>
        <mxCell id="NLfEqvlftT9nmGTMK3e9-4" value="is - a" style="endArrow=block;endSize=16;endFill=0;html=1;rounded=0;exitX=0.44;exitY=1.016;exitDx=0;exitDy=0;exitPerimeter=0;" edge="1" parent="1" source="Hlo-Elp5rLi7jEpFHKFx-11">
          <mxGeometry width="160" relative="1" as="geometry">
            <mxPoint x="280" y="280" as="sourcePoint" />
            <mxPoint x="380" y="310" as="targetPoint" />
          </mxGeometry>
        </mxCell>
        <mxCell id="NLfEqvlftT9nmGTMK3e9-5" value="is - a" style="endArrow=block;endSize=16;endFill=0;html=1;rounded=0;exitX=0.453;exitY=1;exitDx=0;exitDy=0;exitPerimeter=0;" edge="1" parent="1" source="Hlo-Elp5rLi7jEpFHKFx-17">
          <mxGeometry width="160" relative="1" as="geometry">
            <mxPoint x="420" y="380" as="sourcePoint" />
            <mxPoint x="420" y="310" as="targetPoint" />
          </mxGeometry>
        </mxCell>
        <mxCell id="NLfEqvlftT9nmGTMK3e9-6" value="0..1" style="text;html=1;align=center;verticalAlign=middle;resizable=0;points=[];autosize=1;strokeColor=none;fillColor=none;" vertex="1" parent="1">
          <mxGeometry x="230" y="230" width="40" height="30" as="geometry" />
        </mxCell>
        <mxCell id="NLfEqvlftT9nmGTMK3e9-7" value="0..1" style="text;html=1;align=center;verticalAlign=middle;resizable=0;points=[];autosize=1;strokeColor=none;fillColor=none;" vertex="1" parent="1">
          <mxGeometry x="540" y="228" width="40" height="30" as="geometry" />
        </mxCell>
        <mxCell id="NLfEqvlftT9nmGTMK3e9-8" value="1" style="text;html=1;align=center;verticalAlign=middle;resizable=0;points=[];autosize=1;strokeColor=none;fillColor=none;" vertex="1" parent="1">
          <mxGeometry x="385" y="288" width="30" height="30" as="geometry" />
        </mxCell>
        <mxCell id="NLfEqvlftT9nmGTMK3e9-9" value="HandlerAssignment" style="swimlane;fontStyle=0;childLayout=stackLayout;horizontal=1;startSize=26;fillColor=none;horizontalStack=0;resizeParent=1;resizeParentMax=0;resizeLast=0;collapsible=1;marginBottom=0;whiteSpace=wrap;html=1;" vertex="1" parent="1">
          <mxGeometry x="170" y="490" width="150" height="120" as="geometry" />
        </mxCell>
        <mxCell id="NLfEqvlftT9nmGTMK3e9-10" value="&lt;u&gt;assignmentID: int&lt;/u&gt;&lt;br&gt;&lt;br&gt;animalID: int&amp;nbsp;&lt;br&gt;&lt;br&gt;handlerID:" style="text;strokeColor=none;fillColor=none;align=left;verticalAlign=top;spacingLeft=4;spacingRight=4;overflow=hidden;rotatable=0;points=[[0,0.5],[1,0.5]];portConstraint=eastwest;whiteSpace=wrap;html=1;" vertex="1" parent="NLfEqvlftT9nmGTMK3e9-9">
          <mxGeometry y="26" width="150" height="94" as="geometry" />
        </mxCell>
        <mxCell id="NLfEqvlftT9nmGTMK3e9-13" value="" style="endArrow=diamondThin;endFill=1;endSize=24;html=1;rounded=0;entryX=0.494;entryY=1.048;entryDx=0;entryDy=0;entryPerimeter=0;exitX=0.427;exitY=-0.033;exitDx=0;exitDy=0;exitPerimeter=0;" edge="1" parent="1" source="NLfEqvlftT9nmGTMK3e9-9" target="Hlo-Elp5rLi7jEpFHKFx-15">
          <mxGeometry width="160" relative="1" as="geometry">
            <mxPoint x="410" y="620" as="sourcePoint" />
            <mxPoint x="570" y="620" as="targetPoint" />
          </mxGeometry>
        </mxCell>
        <mxCell id="NLfEqvlftT9nmGTMK3e9-14" value="" style="endArrow=diamondThin;endFill=1;endSize=24;html=1;rounded=0;exitX=0.447;exitY=1.043;exitDx=0;exitDy=0;exitPerimeter=0;entryX=0.393;entryY=-0.017;entryDx=0;entryDy=0;entryPerimeter=0;" edge="1" parent="1" source="NLfEqvlftT9nmGTMK3e9-10" target="NLfEqvlftT9nmGTMK3e9-1">
          <mxGeometry width="160" relative="1" as="geometry">
            <mxPoint x="410" y="620" as="sourcePoint" />
            <mxPoint x="570" y="620" as="targetPoint" />
          </mxGeometry>
        </mxCell>
        <mxCell id="NLfEqvlftT9nmGTMK3e9-15" value="has -a / part - of" style="text;html=1;align=center;verticalAlign=middle;resizable=0;points=[];autosize=1;strokeColor=none;fillColor=none;" vertex="1" parent="1">
          <mxGeometry x="240" y="448" width="110" height="30" as="geometry" />
        </mxCell>
        <mxCell id="NLfEqvlftT9nmGTMK3e9-16" value="has -a / part - of" style="text;html=1;align=center;verticalAlign=middle;resizable=0;points=[];autosize=1;strokeColor=none;fillColor=none;" vertex="1" parent="1">
          <mxGeometry x="160" y="650" width="110" height="30" as="geometry" />
        </mxCell>
        <mxCell id="NLfEqvlftT9nmGTMK3e9-17" value="*" style="text;html=1;align=center;verticalAlign=middle;resizable=0;points=[];autosize=1;strokeColor=none;fillColor=none;" vertex="1" parent="1">
          <mxGeometry x="205" y="468" width="30" height="30" as="geometry" />
        </mxCell>
        <mxCell id="NLfEqvlftT9nmGTMK3e9-18" value="1" style="text;html=1;align=center;verticalAlign=middle;resizable=0;points=[];autosize=1;strokeColor=none;fillColor=none;" vertex="1" parent="1">
          <mxGeometry x="400" y="428" width="30" height="30" as="geometry" />
        </mxCell>
        <mxCell id="NLfEqvlftT9nmGTMK3e9-19" value="1" style="text;html=1;align=center;verticalAlign=middle;resizable=0;points=[];autosize=1;strokeColor=none;fillColor=none;" vertex="1" parent="1">
          <mxGeometry x="155" y="688" width="30" height="30" as="geometry" />
        </mxCell>
        <mxCell id="NLfEqvlftT9nmGTMK3e9-20" value="*" style="text;html=1;align=center;verticalAlign=middle;resizable=0;points=[];autosize=1;strokeColor=none;fillColor=none;" vertex="1" parent="1">
          <mxGeometry x="205" y="610" width="30" height="30" as="geometry" />
        </mxCell>
        <mxCell id="NLfEqvlftT9nmGTMK3e9-21" value="Comments" style="swimlane;fontStyle=0;childLayout=stackLayout;horizontal=1;startSize=26;fillColor=none;horizontalStack=0;resizeParent=1;resizeParentMax=0;resizeLast=0;collapsible=1;marginBottom=0;whiteSpace=wrap;html=1;" vertex="1" parent="1">
          <mxGeometry x="470" y="585" width="180" height="160" as="geometry" />
        </mxCell>
        <mxCell id="NLfEqvlftT9nmGTMK3e9-22" value="&lt;u&gt;conmentID:int&lt;/u&gt;&lt;br&gt;&lt;br&gt;createTime: dateTime&lt;br&gt;&lt;br&gt;handlerid: int&lt;br&gt;&lt;br&gt;contens: string" style="text;strokeColor=none;fillColor=none;align=left;verticalAlign=top;spacingLeft=4;spacingRight=4;overflow=hidden;rotatable=0;points=[[0,0.5],[1,0.5]];portConstraint=eastwest;whiteSpace=wrap;html=1;" vertex="1" parent="NLfEqvlftT9nmGTMK3e9-21">
          <mxGeometry y="26" width="180" height="134" as="geometry" />
        </mxCell>
        <mxCell id="NLfEqvlftT9nmGTMK3e9-23" value="" style="endArrow=diamondThin;endFill=0;endSize=24;html=1;rounded=0;exitX=-0.033;exitY=0.515;exitDx=0;exitDy=0;exitPerimeter=0;" edge="1" parent="1" source="NLfEqvlftT9nmGTMK3e9-22">
          <mxGeometry width="160" relative="1" as="geometry">
            <mxPoint x="470" y="720" as="sourcePoint" />
            <mxPoint x="280" y="780" as="targetPoint" />
          </mxGeometry>
        </mxCell>
        <mxCell id="NLfEqvlftT9nmGTMK3e9-24" value="has - a" style="edgeLabel;html=1;align=center;verticalAlign=middle;resizable=0;points=[];" vertex="1" connectable="0" parent="NLfEqvlftT9nmGTMK3e9-23">
          <mxGeometry x="0.0422" y="-2" relative="1" as="geometry">
            <mxPoint as="offset" />
          </mxGeometry>
        </mxCell>
        <mxCell id="NLfEqvlftT9nmGTMK3e9-25" value="*" style="text;html=1;align=center;verticalAlign=middle;resizable=0;points=[];autosize=1;strokeColor=none;fillColor=none;" vertex="1" parent="1">
          <mxGeometry x="440" y="650" width="30" height="30" as="geometry" />
        </mxCell>
        <mxCell id="NLfEqvlftT9nmGTMK3e9-26" value="0..1" style="text;html=1;align=center;verticalAlign=middle;resizable=0;points=[];autosize=1;strokeColor=none;fillColor=none;" vertex="1" parent="1">
          <mxGeometry x="260" y="778" width="40" height="30" as="geometry" />
        </mxCell>
        <mxCell id="NLfEqvlftT9nmGTMK3e9-27" value="" style="endArrow=diamondThin;endFill=0;endSize=24;html=1;rounded=0;exitX=-0.011;exitY=0.333;exitDx=0;exitDy=0;exitPerimeter=0;entryX=1.025;entryY=0.583;entryDx=0;entryDy=0;entryPerimeter=0;" edge="1" parent="1" source="Hlo-Elp5rLi7jEpFHKFx-13" target="Hlo-Elp5rLi7jEpFHKFx-15">
          <mxGeometry width="160" relative="1" as="geometry">
            <mxPoint x="580" y="470" as="sourcePoint" />
            <mxPoint x="740" y="470" as="targetPoint" />
          </mxGeometry>
        </mxCell>
        <mxCell id="NLfEqvlftT9nmGTMK3e9-28" value="has-a" style="edgeLabel;html=1;align=center;verticalAlign=middle;resizable=0;points=[];" vertex="1" connectable="0" parent="NLfEqvlftT9nmGTMK3e9-27">
          <mxGeometry x="-0.0228" y="1" relative="1" as="geometry">
            <mxPoint as="offset" />
          </mxGeometry>
        </mxCell>
        <mxCell id="NLfEqvlftT9nmGTMK3e9-29" value="1..*" style="text;html=1;align=center;verticalAlign=middle;resizable=0;points=[];autosize=1;strokeColor=none;fillColor=none;" vertex="1" parent="1">
          <mxGeometry x="470" y="368" width="40" height="30" as="geometry" />
        </mxCell>
        <mxCell id="NLfEqvlftT9nmGTMK3e9-30" value="0..1" style="text;html=1;align=center;verticalAlign=middle;resizable=0;points=[];autosize=1;strokeColor=none;fillColor=none;" vertex="1" parent="1">
          <mxGeometry x="630" y="368" width="40" height="30" as="geometry" />
        </mxCell>
        <mxCell id="NLfEqvlftT9nmGTMK3e9-31" value="VisitorLogs" style="swimlane;fontStyle=0;childLayout=stackLayout;horizontal=1;startSize=26;fillColor=none;horizontalStack=0;resizeParent=1;resizeParentMax=0;resizeLast=0;collapsible=1;marginBottom=0;whiteSpace=wrap;html=1;" vertex="1" parent="1">
          <mxGeometry x="950" y="210" width="170" height="120" as="geometry" />
        </mxCell>
        <mxCell id="NLfEqvlftT9nmGTMK3e9-32" value="l&lt;u&gt;ogID: int&lt;/u&gt;&lt;br&gt;&lt;br&gt;time: dateTime&lt;br&gt;&lt;br&gt;numOfVisitors: int&lt;br&gt;&lt;div&gt;&lt;br&gt;&lt;/div&gt;" style="text;strokeColor=none;fillColor=none;align=left;verticalAlign=top;spacingLeft=4;spacingRight=4;overflow=hidden;rotatable=0;points=[[0,0.5],[1,0.5]];portConstraint=eastwest;whiteSpace=wrap;html=1;" vertex="1" parent="NLfEqvlftT9nmGTMK3e9-31">
          <mxGeometry y="26" width="170" height="94" as="geometry" />
        </mxCell>
        <mxCell id="NLfEqvlftT9nmGTMK3e9-33" value="" style="endArrow=diamondThin;endFill=0;endSize=24;html=1;rounded=0;exitX=1.027;exitY=0.358;exitDx=0;exitDy=0;exitPerimeter=0;entryX=-0.012;entryY=0.681;entryDx=0;entryDy=0;entryPerimeter=0;" edge="1" parent="1" source="Hlo-Elp5rLi7jEpFHKFx-13" target="NLfEqvlftT9nmGTMK3e9-32">
          <mxGeometry width="160" relative="1" as="geometry">
            <mxPoint x="710" y="590" as="sourcePoint" />
            <mxPoint x="870" y="590" as="targetPoint" />
          </mxGeometry>
        </mxCell>
        <mxCell id="NLfEqvlftT9nmGTMK3e9-34" value="has - a" style="edgeLabel;html=1;align=center;verticalAlign=middle;resizable=0;points=[];" vertex="1" connectable="0" parent="NLfEqvlftT9nmGTMK3e9-33">
          <mxGeometry x="-0.0108" y="1" relative="1" as="geometry">
            <mxPoint as="offset" />
          </mxGeometry>
        </mxCell>
        <mxCell id="NLfEqvlftT9nmGTMK3e9-36" value="0.. 1" style="text;html=1;align=center;verticalAlign=middle;resizable=0;points=[];autosize=1;strokeColor=none;fillColor=none;" vertex="1" parent="1">
          <mxGeometry x="810" y="358" width="50" height="30" as="geometry" />
        </mxCell>
        <mxCell id="NLfEqvlftT9nmGTMK3e9-37" value="*" style="text;html=1;align=center;verticalAlign=middle;resizable=0;points=[];autosize=1;strokeColor=none;fillColor=none;" vertex="1" parent="1">
          <mxGeometry x="925" y="280" width="30" height="30" as="geometry" />
        </mxCell>
        <mxCell id="NLfEqvlftT9nmGTMK3e9-39" value="" style="endArrow=diamondThin;endFill=1;endSize=24;html=1;rounded=0;exitX=1.027;exitY=0.575;exitDx=0;exitDy=0;exitPerimeter=0;" edge="1" parent="1" source="Hlo-Elp5rLi7jEpFHKFx-13">
          <mxGeometry width="160" relative="1" as="geometry">
            <mxPoint x="950" y="430" as="sourcePoint" />
            <mxPoint x="950" y="490" as="targetPoint" />
          </mxGeometry>
        </mxCell>
        <mxCell id="NLfEqvlftT9nmGTMK3e9-40" value="has - a/ part- of" style="edgeLabel;html=1;align=center;verticalAlign=middle;resizable=0;points=[];" vertex="1" connectable="0" parent="NLfEqvlftT9nmGTMK3e9-39">
          <mxGeometry x="-0.2232" relative="1" as="geometry">
            <mxPoint as="offset" />
          </mxGeometry>
        </mxCell>
        <mxCell id="NLfEqvlftT9nmGTMK3e9-41" value="1" style="text;html=1;align=center;verticalAlign=middle;resizable=0;points=[];autosize=1;strokeColor=none;fillColor=none;" vertex="1" parent="1">
          <mxGeometry x="815" y="398" width="30" height="30" as="geometry" />
        </mxCell>
        <mxCell id="NLfEqvlftT9nmGTMK3e9-42" value="*" style="text;html=1;align=center;verticalAlign=middle;resizable=0;points=[];autosize=1;strokeColor=none;fillColor=none;" vertex="1" parent="1">
          <mxGeometry x="935" y="488" width="30" height="30" as="geometry" />
        </mxCell>
      </root>
    </mxGraphModel>
  </diagram>
</mxfile>
